<?xml version="1.0" encoding="UTF-8"?>
<svg xmlns="http://www.w3.org/2000/svg" id="katman_1" data-name="katman 1" viewBox="0 0 251.96 104.32">
  <defs>
    <style>
      .cls-1 {
        fill: #0f2851;
        stroke-width: 0px;
      }
    </style>
  </defs>
  <path class="cls-1" d="m96.51,17.02c4.09,0,7.42,3.33,7.42,7.42s-3.33,7.42-7.42,7.42h-22.96l6.76,16.61h16.2c.07,0,.14,0,.22,0l11.59,22.08h18.4l-14.62-27.84c5.28-4.41,8.44-10.86,8.44-18.27,0-13.26-10.79-24.03-24.03-24.03h-35.13l6.41,16.61h28.73Z"></path>
  <path class="cls-1" d="m47.02.41h-17.49l6.42,16.41h-13.95L.98,70.54h73.48L47.02.41Zm-9.3,20.93l12.75,32.59h-25.5l12.75-32.59Z"></path>
  <polygon class="cls-1" points="180.34 .41 129.53 .41 129.53 17.02 146.63 17.02 146.63 70.54 163.24 70.54 163.24 17.02 180.34 17.02 180.34 .41"></polygon>
  <path class="cls-1" d="m177.5,70.54h73.48L223.54.41h-17.49l6.42,16.41h-13.95l-21.02,53.73Zm36.74-49.2l12.75,32.59h-25.5l12.75-32.59Z"></path>
  <polygon class="cls-1" points="73.67 90.71 78.4 90.71 78.4 103.68 81.15 103.68 81.15 90.71 85.87 90.71 85.87 88.39 73.67 88.39 73.67 90.71"></polygon>
  <polygon class="cls-1" points="94.38 97.18 101.04 97.18 101.04 94.86 94.38 94.86 94.38 90.71 101.55 90.71 101.55 88.39 91.61 88.39 91.61 103.68 101.61 103.68 101.61 101.36 94.38 101.36 94.38 97.18"></polygon>
  <polygon class="cls-1" points="120.07 88.39 116.69 88.39 110.73 95.42 110.54 95.42 110.54 88.39 107.77 88.39 107.77 103.68 110.54 103.68 110.54 99.13 112.24 97.12 116.8 103.68 120.13 103.68 114.16 95.25 120.07 88.39"></polygon>
  <path class="cls-1" d="m135.11,96.39c-.43-.35-.91-.64-1.44-.87-.53-.23-1.09-.41-1.67-.54l-1.43-.36c-.31-.07-.62-.17-.93-.28-.31-.11-.59-.25-.84-.41-.25-.16-.45-.36-.6-.59-.15-.23-.22-.51-.22-.83,0-.38.12-.72.34-1.02.22-.3.53-.53.95-.71.41-.17.91-.26,1.49-.26.82,0,1.49.18,2,.54.52.36.81.87.88,1.52h2.66c-.01-.86-.26-1.62-.72-2.29-.47-.66-1.11-1.18-1.93-1.56-.82-.38-1.77-.56-2.86-.56s-2.03.19-2.87.56c-.85.38-1.51.9-2,1.58-.49.68-.74,1.47-.74,2.37,0,1.09.36,1.97,1.09,2.63.73.66,1.72,1.15,2.98,1.47l1.74.45c.55.14,1.03.3,1.44.47.41.18.73.4.96.66.23.26.35.59.35.99,0,.44-.14.82-.4,1.15-.26.33-.62.58-1.07.76-.46.18-.98.27-1.59.27s-1.1-.09-1.56-.26c-.47-.17-.84-.44-1.13-.79-.29-.35-.45-.8-.49-1.33h-2.72c.04,1.02.3,1.88.79,2.58.49.71,1.17,1.24,2.05,1.61.87.37,1.9.55,3.09.55s2.27-.19,3.13-.57c.86-.38,1.52-.91,1.98-1.59.46-.68.69-1.47.69-2.36,0-.66-.12-1.24-.37-1.73-.25-.49-.59-.91-1.01-1.26Z"></path>
  <polygon class="cls-1" points="141.68 90.71 146.4 90.71 146.4 103.68 149.15 103.68 149.15 90.71 153.87 90.71 153.87 88.39 141.68 88.39 141.68 90.71"></polygon>
  <rect class="cls-1" x="159.61" y="88.39" width="2.77" height="15.29"></rect>
  <path class="cls-1" d="m161,83.83c-.43,0-.8.14-1.1.43-.31.29-.46.63-.46,1.03s.15.75.46,1.04c.31.29.67.43,1.1.43s.8-.14,1.11-.43c.31-.29.46-.63.46-1.03s-.15-.75-.46-1.04c-.31-.29-.67-.43-1.1-.43Z"></path>
  <polygon class="cls-1" points="171.55 88.39 168.78 88.39 168.78 103.68 178.28 103.68 178.28 101.36 171.55 101.36 171.55 88.39"></polygon>
</svg>
