<?xml version="1.0" encoding="UTF-8"?>
<svg id="Layer_1" xmlns="http://www.w3.org/2000/svg" version="1.1" viewBox="0 0 500 228.6">
  <!-- Generator: Adobe Illustrator 29.1.0, SVG Export Plug-In . SVG Version: 2.1.0 Build 142)  -->
  <defs>
    <style>
      .st0 {
        fill: #fff;
      }
    </style>
  </defs>
  <path class="st0" d="M130.2,140.8h-12.6V34.2h12.6v106.6Z"/>
  <path class="st0" d="M220.9,140.8h-1.7c-8.7-.5-17.2-3-24.7-7.5-7.3-4.4-12.2-10.2-14.7-17.6v-1.7c-.2-1.3.3-2.5,1.1-3.5,1.1-1.4,2.8-2.2,4.6-2.1,1.5,0,2.9.5,4,1.5,1,.9,1.7,2.3,1.8,3.6.8,8,3.8,14,9,18,5.6,4.4,12.5,6.5,20.7,6.5,7.2,0,14.3-2.1,20.2-6.2,6.1-4.1,9.5-10.3,10.4-18.6,0-6.1-3-10.6-9.1-13.4-6.9-3.1-14.2-5.5-21.7-7.1-6.5-1.5-12.8-3.4-19-5.8-12.4-4.7-18.6-11.9-18.5-21.6,0-1.5.1-2.9.3-4.4,1.8-8.7,6.8-15.5,14.9-20.2,7.5-4.3,16-6.6,24.6-6.5h2.3c13.8,1.2,24.6,6.6,32.5,16.3.9,1,1.3,2.3,1.4,3.6,0,3.5-2,5.3-5.9,5.5-2.4-.1-4.5-1.8-5.2-4.1-3.7-12.4-12-18.6-25.1-18.6-6.9,0-13.7,1.9-19.5,5.6-5.9,3.8-9,9.8-9.4,18.1-.1,3.6,1.5,7.1,4.3,9.4,3.4,2.6,7.2,4.7,11.3,5.9,4.7,1.6,9.6,3,14.9,4.3,9.2,2,18.1,5.1,26.5,9.4,7.7,4,11.6,10.6,11.6,19.7v.3c-.8,9.1-5.3,16.6-13.5,22.6-7.9,5.7-17.3,8.5-28.3,8.5Z"/>
  <path class="st0" d="M370.1,140.8h-57.7V34.2h57.7v2.7h-45v62.8h34.2v2.7h-34.2v35.6h45v2.7Z"/>
  <path class="st0" d="M500,140.8h-12.6V43.3l-31,97.5h-2.9l-31.2-98v98h-2.7V34.2h13.2l27.2,85.8,27.4-85.8h12.6v106.6Z"/>
  <path class="st0" d="M59.6,103.9c-1.5-1.1-3.1-2-4.7-2.8-.4-.2-.8-.4-1.2-.5-.2,0-1.2-.5-1.3-.4,2.3-2.1,4.5-4.5,6.4-7,2.6-3.6,4.8-7.6,6.4-11.7,4.8-13.1,3.3-27.8-7.1-37.7-6.7-6.5-15.8-9.7-27.1-9.7H0v106.7h44.8c8.5,0,16.9-2.6,21.5-10.3,3.2-5.2,3.6-11.6,1.3-17.3-1.2-2.7-3-5.2-5.2-7.1-.9-.8-1.8-1.5-2.7-2.2ZM12.6,36.9h14.8c9.3,0,16.4,2.8,21.1,8.5s7.1,13.3,7.1,22.8c0,9.6-2.4,17.3-7.1,23-4.7,5.7-11.7,8.5-21.1,8.5h-14.7v-62.9ZM52.8,133.9c-2.8,2.8-6.6,4.3-10.6,4.2H12.6v-35.6h29.5c4-.1,7.8,1.4,10.6,4.2,2.8,2.8,4.2,7.3,4.2,13.6,0,6.3-1.4,10.8-4.2,13.6h0Z"/>
  <polygon class="st0" points="154.9 0 159 5.8 125.2 21.6 123.9 19.6 154.9 0"/>
  <path class="st0" d="M69,201.5h11.2c5.6,0,9.9,3.6,9.9,8.7s-4.3,8.7-9.9,8.7h-7.3v9.3h-3.9v-26.6ZM79.6,215.3c3.8,0,6.4-1.9,6.4-5s-2.6-5-6.4-5h-6.7v10h6.7Z"/>
  <path class="st0" d="M137.1,222.7h-13.9l-2.3,5.4h-4.3l11.4-26.6h4.3l11.4,26.6h-4.3l-2.4-5.4ZM135.6,219.2l-5.4-12.6-5.4,12.6h10.9Z"/>
  <path class="st0" d="M184.6,218.5l6.8,9.7h-4.5l-6.5-9.3h-6.1v9.3h-3.9v-26.6h11.2c5.6,0,9.9,3.6,9.9,8.7s-2.8,7.2-6.8,8.3ZM174.3,215.3h6.7c3.8,0,6.4-1.9,6.4-5s-2.6-5-6.4-5h-6.7v10Z"/>
  <path class="st0" d="M238.6,222.7h-13.9l-2.3,5.4h-4.4l11.4-26.6h4.3l11.4,26.6h-4.3l-2.3-5.4ZM237,219.2l-5.4-12.6-5.4,12.6h10.9Z"/>
  <path class="st0" d="M271.8,201.5h9.2c8.6,0,14.7,5.5,14.7,13.3s-6.1,13.3-14.7,13.3h-9.2v-26.6ZM281.2,224.5c6.2,0,10.5-4,10.5-9.8s-4.3-9.7-10.5-9.7h-5.5v19.5h5.5Z"/>
  <path class="st0" d="M322.3,201.5h3.9v26.6h-3.9v-26.6Z"/>
  <path class="st0" d="M352.8,224.3l2.4-2.9c2.3,2.4,5.5,3.7,8.8,3.7,3.7,0,5.6-1.9,5.6-4.1s-2.2-3.5-6.7-4.5c-5.4-1.3-9-2.9-9-7.7s3.9-7.8,9.2-7.8c3.6,0,7.1,1.3,9.7,3.8l-2.2,2.9c-2-2-4.8-3.2-7.6-3.2-3,0-5.1,1.9-5.1,4s2.3,3.3,6.7,4.4c5.3,1.2,9,3,9,7.8s-3.4,7.9-9.7,7.9c-4.1.1-8-1.4-11-4.2Z"/>
  <path class="st0" d="M403.9,205.2v7.6h14.1v3.6h-14.1v8.1h15.6v3.6h-19.5v-26.6h19.6v3.6h-15.6Z"/>
</svg>