<svg xmlns="http://www.w3.org/2000/svg" xmlns:xlink="http://www.w3.org/1999/xlink" width="70px" height="20px" viewBox="0 0 70 20" version="1.1"><title>qcells-logo</title><desc>Created with Sketch.</desc><defs><linearGradient x1="109.105747%" y1="50.2038475%" x2="-0.172837241%" y2="49.7930376%" id="linearGradient-1"><stop stop-color="#0228A0" offset="8.192332%"></stop><stop stop-color="#0095D6" offset="42.99%"></stop><stop stop-color="#00C6C1" offset="61.06%"></stop><stop stop-color="#A1E2B7" offset="100%"></stop></linearGradient></defs><g id="Page-1" stroke="none" stroke-width="1" fill="none" fill-rule="evenodd"><g id="Artboard" transform="translate(-104.000000, -91.000000)" fill="url(#linearGradient-1)" fill-rule="nonzero"><g id="qcells-logo" transform="translate(104.000000, 91.000000)"><path d="M15.6,10.6 C15.6,6.4 12.3,3.2 8,3.2 C6,3.2 4.3,3.8 2.9,5 C1.2,6.5 0.2,8.6 0.2,10.8 C0.2,14.9 3.7,18.3 7.9,18.3 C9.2,18.3 10.1,18.1 11.3,17.6 L12.6,19.1 L15.1,17 L13.9,15.6 C15,14.2 15.6,12.4 15.6,10.6 M11.5,12.8 L9.8,10.8 L7.2,12.8 L8.9,14.8 C8.6,14.9 8.4,14.9 7.9,14.9 C5.6,14.9 3.8,13.1 3.8,10.7 C3.8,8.3 5.6,6.4 7.9,6.4 C10.2,6.4 12,8.3 12,10.6 C12,11.3 11.8,12.1 11.5,12.8 M46.6,0 L50.4,0 L50.4,17.7 L46.6,17.7 L46.6,0 Z M53.1,0 L56.9,0 L56.9,17.7 L53.1,17.7 L53.1,0 Z M65.5,9.3 C68.6,10.3 69.8,11.5 69.8,13.7 C69.8,16.4 67.7,18.2 64.4,18.2 C61.1,18.2 59.1,16.5 59,13.7 L62.6,13.7 C62.8,14.9 63.3,15.4 64.4,15.4 C65.3,15.4 65.9,14.9 65.9,14.1 C65.9,13.3 65.4,12.9 63.3,12.2 C60.3,11.3 59,10 59,7.8 C59,5.2 61.1,3.4 64.3,3.4 C67.5,3.4 69.4,5.1 69.5,7.9 L66,7.9 L66,7.7 C66,6.9 65.3,6.3 64.2,6.3 C63.3,6.3 62.7,6.8 62.7,7.6 C62.7,8 62.8,8.3 63.1,8.5 C63.6,8.7 63.6,8.7 65.5,9.3 M44.7,11 C44.7,6.5 41.7,3.4 37.3,3.4 C33,3.4 30,6.4 30,10.8 C30,15.1 33.1,18.2 37.6,18.2 C40.5,18.2 43,16.7 44.3,14 L40.8,13 C40.2,14.1 39,14.8 37.6,14.8 C35.7,14.8 33.8,13.6 33.8,11.7 L44.7,11.7 L44.7,11 Z M33.9,8.9 C34,7.7 35.4,6.7 37.5,6.7 C39.7,6.7 40.9,7.8 41.1,8.9 L33.9,8.9 Z M24.5,14.9 C25.5,14.9 26.4,14.6 27.4,13.7 L29.5,16.2 C27.9,17.6 26.2,18.3 24.1,18.3 C19.8,18.3 16.7,15.2 16.7,10.9 C16.7,6.5 19.8,3.4 24.1,3.4 C26,3.4 27.7,4 29.3,5.4 L27.2,8 C26.4,7.2 25.5,6.8 24.3,6.8 C22.2,6.8 20.6,8.5 20.6,10.8 C20.6,13.2 22.2,14.9 24.5,14.9" id="Shape"></path></g></g></g></svg>