<svg width="103" height="45" viewBox="0 0 103 45" fill="none" xmlns="http://www.w3.org/2000/svg">
<path d="M34.3906 0.106827H15.5479C15.5479 2.57801 16.4746 4.63733 18.225 6.38775C19.9754 8.13817 22.1377 8.9619 24.5059 8.9619H34.4936C35.7292 8.9619 36.7589 8.55004 37.6856 7.62334C38.6122 6.79962 39.0241 5.76996 39.0241 4.53436C39.0241 3.29877 38.6122 2.26911 37.6856 1.34242C36.6559 0.518691 35.6262 0.106827 34.3906 0.106827ZM42.525 22.4504C42.525 18.7437 43.7605 15.5517 46.3347 12.9776C48.9088 10.3005 51.9978 9.06487 55.7046 9.06487H56.5283C58.9995 9.06487 61.0588 8.24114 62.8093 6.49072C64.5597 4.7403 65.3834 2.68098 65.3834 0.209793H55.7046C49.5266 0.209793 44.1724 2.37208 39.7449 6.69665C35.3173 11.0212 33.0521 16.2725 33.0521 22.5534V45C35.6262 45 37.7885 44.0733 39.6419 42.2199C41.4953 40.3665 42.422 38.2042 42.422 35.6301V22.4504H42.525ZM73.6207 22.4504C73.5177 26.1572 74.8563 29.2462 77.4304 31.9233C80.0046 34.4975 83.1965 35.836 86.9033 35.7331C88.2419 35.7331 89.5804 35.6301 90.816 35.1153C93.1842 33.9826 96.891 33.7767 100.186 36.8657L102.554 39.028C98.1266 42.9407 92.8753 44.897 87.1092 44.897C80.8283 44.7941 75.4741 42.6318 71.1495 38.2042C66.8249 33.8797 64.5597 28.6284 64.4567 22.4504C64.5597 16.2725 66.722 11.0212 71.1495 6.69665C75.577 2.26911 80.8283 0.106827 87.1092 0.00386123C92.7724 -0.0991048 98.1266 1.85725 102.554 5.87292L100.186 8.03521C96.788 11.1242 93.0812 10.9183 90.816 9.78563C89.5804 9.2708 88.2419 9.16783 86.9033 9.16783C83.1965 9.06487 80.1075 10.4034 77.4304 12.9776C74.8563 15.5517 73.5177 18.7437 73.6207 22.4504ZM9.36991 9.47673C9.36991 6.90258 8.44321 4.7403 6.58982 2.88691C4.73644 1.03352 2.57415 0.106827 0 0.106827V35.4242C0 37.9983 0.926694 40.1606 2.78008 42.014C4.63347 43.8674 6.79576 44.7941 9.36991 44.7941V9.47673Z" fill="#EEE300"/>
</svg>
