<svg xmlns="http://www.w3.org/2000/svg" width="115" height="116" viewBox="0 0 115 116">
    <g fill="none" fill-rule="evenodd">
        <path fill="#E22927" d="M27.166 106.328h1.737v3.966h4.191v-3.966h1.75v9.33h-1.75v-3.967h-4.191v3.966h-1.737v-9.329zm9.99 4.723v-.104c0-2.727 1.96-4.75 4.728-4.75 2.781 0 4.7 1.97 4.7 4.71v.105c0 2.727-1.867 4.776-4.7 4.776-2.86 0-4.727-2.049-4.727-4.737zm7.626-.026v-.104c0-1.918-1.07-3.34-2.898-3.34s-2.912 1.343-2.912 3.353v.104c0 2.036 1.24 3.354 2.938 3.354 1.763 0 2.872-1.344 2.872-3.367zm4.128-4.697h1.737v7.946h3.982v1.383H48.91v-9.329zm7.85 0h2.833c3.251 0 4.831 1.853 4.831 4.567v.117c0 2.714-1.58 4.645-4.857 4.645h-2.808v-9.329zm2.754 7.96c2.09 0 3.095-1.201 3.095-3.263v-.104c0-2.01-.914-3.223-3.108-3.223h-1.005v6.59h1.018zm7.235-9.643c0-.496.405-.888.927-.888.51 0 .928.392.928.888 0 .495-.418.9-.928.9a.909.909 0 0 1-.927-.9zm.04 11.012v-9.329h1.75v9.33h-1.75zm4.61-9.329h2.075l3.931 6.746v-6.746h1.58v9.33h-1.802l-4.204-7.15v7.15h-1.58v-9.33zm9.912 4.723v-.104c0-2.78 1.932-4.762 4.661-4.762 1.998 0 3.774.913 4.022 3.144h-1.737c-.208-1.24-1.044-1.775-2.258-1.775-1.829 0-2.886 1.358-2.886 3.406v.104c0 1.996.927 3.367 2.886 3.367 1.75 0 2.468-1.057 2.52-2.349h-2.35v-1.305h4.06v.861c0 2.584-1.619 4.15-4.257 4.15-2.99 0-4.661-1.984-4.661-4.737z"/>
        <path fill="#FFF" d="M4.83 97.002v-14.53H0v-4.12h15.037v4.12h-4.83v14.53H4.83zm12.037-9.209v-.208c0-5.687 4.281-9.495 9.868-9.495 5.691 0 9.894 3.573 9.894 9.364v.209c0 5.74-3.941 9.652-9.972 9.652s-9.79-3.912-9.79-9.522zm14.176-.05v-.21c0-3.313-1.671-5.27-4.308-5.27-2.637 0-4.282 1.905-4.282 5.296v.209c0 3.39 1.723 5.348 4.308 5.348 2.637 0 4.282-2.035 4.282-5.374zm8.032 3.338h5.092c.13 1.33.73 2.425 2.949 2.425 1.54 0 2.402-.756 2.402-1.852 0-1.147-.705-1.513-2.95-1.8-5.273-.678-7.048-2.191-7.048-5.947 0-3.365 2.767-5.817 7.23-5.817 4.491 0 7.024 1.877 7.363 5.817h-4.96c-.183-1.33-.94-2.009-2.402-2.009-1.436 0-2.167.653-2.167 1.591 0 1.044.574 1.54 2.898 1.827 4.725.548 7.153 1.748 7.153 5.79 0 3.418-2.715 6.209-7.52 6.209-5.22 0-7.883-2.191-8.04-6.234zm22.553 5.921V89.02L55.545 78.35h5.823l3.158 6.286 3.16-6.286h5.116L67.006 89.02v7.982h-5.378zm10.742 0l5.978-18.65h6.918l5.926 18.65h-5.664l-.992-3.47h-6.188l-.992 3.47H72.37zm9.085-14.322l-2.062 7.174h4.098l-2.036-7.174zM94.06 97.002v-18.65h5.377v14.502h7.05v4.148H94.06zm15.517 0v-18.65h5.404v18.65h-5.404z"/>
        <path fill="#E22927" d="M36.238 36.376H22.237v-13.99h23.336c5.156 0 9.333-2.089 9.333-4.664 0-2.575 4.18-4.663 9.336-4.663 5.155 0 9.334-2.088 9.334-4.664 0-2.575 4.18-4.663 9.334-4.663h.003c4.515 0 8.28-1.603 9.145-3.732h.186v8.394c0 2.577-4.177 4.665-9.334 4.665-5.154 0-9.334 2.088-9.334 4.663s-4.18 4.664-9.334 4.664c-5.156 0-9.336 2.088-9.336 4.663s-4.177 4.663-9.333 4.663v.002c-5.154 0-9.334 2.087-9.335 4.662zm55.82-8.394h.187V36.378c0 2.576-4.178 4.664-9.334 4.664-5.155 0-9.335 2.087-9.335 4.663 0 2.575-4.179 4.664-9.334 4.664-5.156 0-9.335 2.088-9.335 4.664 0 2.575-4.179 4.663-9.334 4.663-4.516 0-8.28 1.602-9.147 3.73h-.188V55.033c0-2.576 4.18-4.664 9.335-4.664 5.155 0 9.334-2.089 9.334-4.664 0-2.576 4.179-4.663 9.335-4.663 5.155 0 9.334-2.088 9.334-4.664 0-2.575 4.18-4.664 9.335-4.664h.001c4.517 0 8.283-1.602 9.146-3.732zm.187-13.99v8.395c0 2.576-4.178 4.664-9.335 4.664-5.154 0-9.334 2.088-9.334 4.663 0 2.576-4.18 4.664-9.334 4.664-5.156 0-9.336 2.088-9.336 4.664 0 2.576-4.177 4.662-9.333 4.662v.001c-4.516 0-8.28 1.602-9.147 3.73h-.188V41.042c0-2.576 4.18-4.664 9.335-4.664 5.156 0 9.333-2.088 9.333-4.664 0-2.574 4.18-4.663 9.336-4.663 5.155 0 9.334-2.088 9.334-4.664 0-2.576 4.18-4.663 9.334-4.663h.003c4.516-.002 8.282-1.604 9.145-3.732h.187z"/>
    </g>
</svg>
