<?xml version="1.0" encoding="utf-8"?>
<!-- Generator: Adobe Illustrator 27.1.1, SVG Export Plug-In . SVG Version: 6.00 Build 0)  -->
<svg version="1.1" id="katman_1" xmlns="http://www.w3.org/2000/svg" xmlns:xlink="http://www.w3.org/1999/xlink" x="0px" y="0px"
	 viewBox="0 0 199 85" style="enable-background:new 0 0 199 85;" xml:space="preserve">
<style type="text/css">
	.st0{fill:#0D436B;}
	.st1{fill:#FFFFFF;}
	.st2{fill:#00AEEF;}
</style>
<path class="st0" d="M106.8,15.1L115.5,0h17.5l-8.7,15.1l-8.7,15.1L106.8,15.1z"/>
<path class="st0" d="M89.3,15.1L80.6,0H63.1l8.7,15.1l8.7,15.1L89.3,15.1z"/>
<path class="st0" d="M89.3,15.1L98,30.2l8.7-15.1L98,0L89.3,15.1z"/>
<g>
	<path class="st1" d="M71.7,79.4c-0.7,0-1.3,0.3-1.6,0.9v-2.5h-0.4v5.6h0.4v-0.8c0.3,0.5,0.9,0.9,1.6,0.9c1.1,0,1.9-0.9,1.9-2.1
		C73.6,80.3,72.8,79.4,71.7,79.4z M73.2,81.5L73.2,81.5c0,1-0.7,1.7-1.6,1.7c-0.9,0-1.6-0.7-1.6-1.7c0-0.9,0.7-1.7,1.6-1.7
		C72.6,79.8,73.2,80.5,73.2,81.5z"/>
	<path class="st1" d="M75.9,82.9l-1.6-3.4h-0.4l1.9,3.8c-0.4,0.8-0.6,0.9-0.9,0.9c-0.2,0-0.4-0.1-0.6-0.2l-0.1,0l-0.3,0.7l0.3-0.3
		c0.2,0.1,0.5,0.2,0.7,0.2c0.6,0,0.9-0.3,1.3-1.2l1.7-3.9l0-0.1h-0.4L75.9,82.9z"/>
	<polygon class="st1" points="87.1,78 85.5,82.7 84,78 83.7,78 82.1,82.7 80.6,78.1 80.5,78 80.1,78 81.9,83.4 82,83.4 82.3,83.4 
		83.8,78.8 85.3,83.4 85.3,83.4 85.6,83.4 87.5,78 	"/>
	<path class="st1" d="M89.4,79.4c-1,0-1.8,0.8-1.9,1.9l0,0v0.2c0,1.2,0.8,2.1,2,2.1c0.6,0,1.2-0.3,1.6-0.8l0-0.1l-0.3-0.2l0,0.1
		c-0.2,0.3-0.6,0.7-1.3,0.7c-0.8,0-1.5-0.6-1.5-1.5h3.3v-0.2C91.2,80.4,90.6,79.4,89.4,79.4z M90.7,81.2h-2.9
		c0.1-0.9,0.7-1.5,1.5-1.5C90.2,79.7,90.7,80.5,90.7,81.2z"/>
	<path class="st1" d="M93.8,79.4c-0.7,0-1.2,0.5-1.5,1v-0.9H92l-0.1,0v3.9h0.4v-1.9c0-0.8,0.6-1.7,1.5-1.7H94v-0.4L93.8,79.4
		C93.9,79.4,93.9,79.4,93.8,79.4z"/>
	<path class="st1" d="M97.6,80.3c-0.3-0.5-0.9-0.9-1.6-0.9c-1.1,0-1.9,0.9-1.9,2.1c0,0,0,0,0,0l0,0l0,0c0,1.2,0.8,2,1.9,2
		c0.7,0,1.3-0.3,1.6-0.9v0.8H98v-5.6h-0.4V80.3z M97.6,81.4c0,0.9-0.7,1.7-1.6,1.7c-0.9,0-1.6-0.7-1.6-1.7c0-1,0.7-1.7,1.6-1.7
		C96.9,79.8,97.6,80.5,97.6,81.4z"/>
	<path class="st1" d="M100.7,79.4c-1,0-1.8,0.8-1.9,1.9l0,0v0.2c0,1.2,0.8,2.1,2,2.1c0.6,0,1.2-0.3,1.6-0.8l0-0.1l-0.3-0.2l0,0.1
		c-0.3,0.4-0.8,0.7-1.3,0.7c-0.8,0-1.5-0.6-1.5-1.5h3.3v-0.2C102.5,80.4,102,79.4,100.7,79.4z M102.1,81.2h-2.9
		c0.1-0.9,0.7-1.5,1.5-1.5C101.6,79.7,102,80.5,102.1,81.2z"/>
	<polygon class="st1" points="109.3,80.5 105.8,80.5 105.8,78 105.4,78 105.4,83.4 105.8,83.4 105.8,80.9 109.3,80.9 109.3,83.4 
		109.7,83.4 109.7,78 109.3,78 	"/>
	<path class="st1" d="M112.6,79.4c-1.1,0-2,0.9-2,2.1v0c0,1.1,0.9,2,2,2s2-0.9,2-2.1C114.7,80.3,113.8,79.4,112.6,79.4z M114.2,81.5
		c0,0.9-0.7,1.7-1.6,1.7s-1.6-0.7-1.6-1.7c0-0.9,0.7-1.7,1.6-1.7C113.5,79.8,114.2,80.5,114.2,81.5z"/>
	<path class="st1" d="M116.1,78.2h-0.4v1.3h-0.6v0.4h0.6v2.5c0,0.7,0.4,1.1,1.1,1.1c0.2,0,0.4,0,0.6-0.1l0,0v-0.4l-0.1,0.1
		c-0.2,0.1-0.4,0.1-0.5,0.1c-0.5,0-0.7-0.3-0.7-0.8v-2.5h1.4v-0.4h-1.4V78.2z"/>
	<path class="st1" d="M119.7,79.4c-1,0-1.8,0.8-1.9,1.9l0,0v0.2c0,1.2,0.8,2.1,2,2.1c0.6,0,1.2-0.3,1.6-0.8l0-0.1l-0.3-0.2l0,0.1
		c-0.2,0.3-0.6,0.7-1.3,0.7c-0.8,0-1.5-0.6-1.5-1.5h3.3v-0.2C121.5,80.4,121,79.4,119.7,79.4z M121.1,81.2h-2.9
		c0.1-0.9,0.7-1.5,1.5-1.5C120.6,79.7,121,80.5,121.1,81.2z"/>
	<rect x="122.4" y="77.8" class="st1" width="0.4" height="5.6"/>
	<path class="st1" d="M125.2,81.2c-0.6-0.2-1.1-0.3-1.1-0.7v0c0-0.4,0.4-0.7,1-0.7c0.4,0,0.8,0.1,1.2,0.4l0.1,0l0.2-0.3l-0.1,0
		c-0.4-0.3-0.9-0.4-1.4-0.4c-0.8,0-1.4,0.4-1.4,1.1c0,0.7,0.7,0.9,1.4,1.1c0.6,0.2,1.1,0.3,1.1,0.8v0c0,0.4-0.4,0.7-1,0.7
		c-0.5,0-1-0.2-1.4-0.5l-0.1,0l-0.2,0.3l0.1,0c0.4,0.4,1,0.6,1.6,0.6c0.8,0,1.4-0.5,1.4-1.1v0C126.6,81.6,125.9,81.4,125.2,81.2z"/>
</g>
<g>
	<polygon class="st1" points="6.7,52.6 0.8,44.1 -0.2,44.1 -0.2,58.9 0.9,58.9 0.9,46.3 6.5,54.3 6.6,54.4 6.9,54.4 12.5,46.3 
		12.5,58.9 13.7,58.9 13.7,44.1 12.6,44.1 	"/>
	<path class="st1" d="M24.4,44l-7,14.9h1.3l2-4.2h8.6l1.9,4.2h1.3l-7-14.9H24.4z M21.2,53.6l3.7-8l3.7,8H21.2z"/>
	<path class="st1" d="M52.5,51.3c1.3-0.6,2.1-1.9,2.1-3.4c0-1-0.3-1.8-1-2.5c-0.9-0.9-2.2-1.3-3.9-1.3h-5.9v0.2h-0.2v14.6H50
		c3.4,0,5.4-1.5,5.4-4.1C55.4,53.2,54.3,51.9,52.5,51.3z M44.7,50.9v-5.6h4.9c2.3,0,3.7,1,3.7,2.8c0,2.1-1.8,2.9-3.6,2.9H44.7z
		 M54.1,54.9c0,1.8-1.6,2.9-4.1,2.9l-5.3,0V52H50C52.6,52,54.1,53.1,54.1,54.9z"/>
	<rect x="59.9" y="44.1" class="st1" width="1.2" height="14.8"/>
	<path class="st1" d="M78.1,55.8c-1.5,1.5-3,2.2-4.9,2.2c-3.4,0-6.1-2.9-6.1-6.5c0-3.7,2.7-6.5,6.1-6.5c2.4,0,3.8,1.1,4.9,2.1
		l0.2,0.2l0.8-0.9l-0.2-0.2c-1.5-1.4-3.1-2.3-5.7-2.3c-4.1,0-7.3,3.4-7.3,7.7v0l0.3,0v0v0h-0.3c0,4.3,3.2,7.6,7.3,7.6
		c2.3,0,4.1-0.8,5.8-2.5l0.2-0.2l-0.9-0.8L78.1,55.8z"/>
	<polygon class="st1" points="93.3,50.9 84,50.9 84,44.1 82.8,44.1 82.8,58.9 84,58.9 84,52 93.3,52 93.3,58.9 94.5,58.9 94.5,44.1 
		93.3,44.1 	"/>
	<polygon class="st1" points="100.9,52 109.4,52 109.4,50.9 100.9,50.9 100.9,45.2 110.3,45.2 110.3,44.1 99.7,44.1 99.7,58.9 
		110.4,58.9 110.4,57.8 100.9,57.8 	"/>
	<polygon class="st1" points="134.2,44.1 132.5,44.1 123.3,53.3 123.3,44.1 122.1,44.1 122.1,58.9 123.3,58.9 123.3,54.9 
		126.8,51.3 132.8,58.9 134.4,58.9 127.7,50.5 	"/>
	<polygon class="st1" points="139.2,52 147.7,52 147.7,50.9 139.2,50.9 139.2,45.2 148.6,45.2 148.6,44.1 138,44.1 138,58.9 
		148.8,58.9 148.8,57.8 139.2,57.8 	"/>
	<polygon class="st1" points="160.1,52.6 154.1,44.1 153.1,44.1 153.1,58.9 154.3,58.9 154.3,46.3 159.8,54.3 159.9,54.4 
		160.2,54.4 165.8,46.3 165.8,58.9 167,58.9 167,44.1 166,44.1 	"/>
	<polygon class="st1" points="173.4,52 181.9,52 181.9,50.9 173.4,50.9 173.4,45.2 182.8,45.2 182.8,44.1 172.2,44.1 172.2,58.9 
		182.9,58.9 182.9,57.8 173.4,57.8 	"/>
	<path class="st1" d="M194.5,52.7c2.7-0.4,4.3-2,4.3-4.3c0-1.1-0.4-2.1-1.1-2.8c-1-0.9-2.4-1.4-4.3-1.4h-6.2v14.8h1.2v-6.1h4.7
		l4.7,6.1h1.5L194.5,52.7z M197.6,48.5c0,2-1.7,3.2-4.4,3.2h-4.8v-6.4h4.9C196.1,45.2,197.6,46.4,197.6,48.5z"/>
</g>
<path class="st2" d="M126.5,68.3H69.6v0.3h56.9V68.3z"/>
<path class="st2" d="M94.7,68.5l3.3,5.8l3.3-5.8L98,62.7L94.7,68.5z"/>
</svg>
