<?xml version="1.0" encoding="UTF-8"?><svg id="Layer_1" xmlns="http://www.w3.org/2000/svg" viewBox="0 0 500 73"><defs><style>.cls-1{fill:#fff;}.cls-2{fill:#e20613;}</style></defs><g><g><path class="cls-2" d="m109.54,17.96c7,0,12.26,1.4,15.77,4.19,3.51,2.79,5.27,7.2,5.27,13.22s-1.75,10.47-5.25,13.27c-3.5,2.79-8.76,4.19-15.79,4.19s-12.33-1.4-15.81-4.19c-3.48-2.79-5.23-7.21-5.23-13.27s1.75-10.42,5.25-13.22c3.5-2.79,8.76-4.19,15.79-4.19Zm0,26.08c2.24,0,4.13-.11,5.68-.33,1.55-.22,2.8-.65,3.76-1.29.96-.64,1.66-1.52,2.09-2.65.43-1.13.65-2.6.65-4.41s-.22-3.29-.65-4.41c-.43-1.13-1.13-2-2.09-2.62-.96-.62-2.22-1.04-3.76-1.26-1.55-.22-3.44-.33-5.68-.33s-4.13.11-5.68.33-2.8.64-3.76,1.26c-.96.62-1.66,1.5-2.09,2.62-.43,1.13-.64,2.6-.64,4.41s.21,3.29.64,4.41c.43,1.13,1.13,2.01,2.09,2.65.96.64,2.22,1.07,3.76,1.29,1.55.22,3.44.33,5.68.33Zm-8.13-32.38c0-1.21.36-2.14,1.08-2.8.72-.66,1.58-.98,2.58-.98s1.91.33,2.62.98c.72.66,1.08,1.59,1.08,2.8s-.36,2.09-1.08,2.72c-.72.64-1.59.96-2.62.96s-1.87-.32-2.58-.96c-.72-.64-1.08-1.55-1.08-2.72Zm8.95,0c0-1.21.36-2.14,1.08-2.8.72-.66,1.58-.98,2.58-.98s1.91.33,2.62.98c.72.66,1.08,1.59,1.08,2.8s-.36,2.09-1.08,2.72c-.72.64-1.59.96-2.62.96s-1.86-.32-2.58-.96c-.72-.64-1.08-1.55-1.08-2.72Z"/><path class="cls-2" d="m165.35,52.26h-27.28c-1.12,0-2.09-.36-2.9-1.08-.82-.72-1.23-1.77-1.23-3.15,0-.77.17-1.52.52-2.24.34-.72.82-1.37,1.42-1.94l10.5-9.69c1.2-1.11,2.24-2.06,3.1-2.85.86-.79,1.61-1.46,2.24-2.02s1.16-1,1.57-1.34c.41-.34.75-.62,1.01-.86-.4.03-.87.07-1.4.1-.53.03-1.19.06-1.98.08-.79.02-1.71.03-2.78.03h-15.27l5.68-8.78h26.55c1.12,0,2.09.36,2.9,1.08.82.72,1.23,1.77,1.23,3.15,0,.77-.17,1.52-.52,2.24-.34.72-.82,1.35-1.42,1.89l-10.63,9.89c-1.18,1.11-2.2,2.05-3.06,2.82-.86.77-1.6,1.44-2.22,1.99-.62.55-1.13,1-1.53,1.34-.4.34-.75.62-1.03.86.34-.03.93-.06,1.74-.08.82-.02,1.76-.03,2.82-.05,1.06-.02,2.19-.03,3.4-.05,1.2-.02,2.37-.03,3.48-.03h10.46l-5.38,8.68Z"/><path class="cls-2" d="m200.45,31.99c3.53,0,6.21.77,8.05,2.3,1.83,1.53,2.75,3.84,2.75,6.94,0,1.72-.23,3.26-.69,4.64-.46,1.38-1.19,2.54-2.19,3.48-1.01.94-2.29,1.66-3.85,2.17s-3.44.76-5.61.76h-26.81l5.72-8.68h21.77c1.06,0,1.84-.19,2.32-.58.49-.39.73-1.02.73-1.89s-.24-1.5-.73-1.87c-.49-.37-1.26-.56-2.32-.56h-15.66c-1.86,0-3.47-.23-4.82-.71-1.35-.47-2.47-1.13-3.36-1.97-.89-.84-1.55-1.86-1.98-3.05-.43-1.19-.64-2.51-.64-3.96,0-1.58.24-3.02.71-4.31.47-1.29,1.21-2.4,2.19-3.3.99-.91,2.27-1.61,3.83-2.12s3.44-.76,5.62-.76h25l-5.72,8.78h-19.96c-1.03,0-1.8.17-2.3.5-.5.34-.75.94-.75,1.82s.25,1.49.75,1.84c.5.35,1.27.53,2.3.53h15.66Z"/><path class="cls-2" d="m248.64,43.59l-5.72,8.68h-27.71V18.52h33.35l-5.77,8.78h-18.63v4.04h22.8l-5.12,7.67h-17.68v4.59h24.48Z"/><path class="cls-2" d="m288.31,43.59l-5.72,8.68h-14.46c-2.5,0-4.81-.44-6.93-1.31-2.12-.87-3.95-2.08-5.48-3.61-1.53-1.53-2.74-3.35-3.61-5.45-.87-2.1-1.31-4.38-1.31-6.83s.44-4.7,1.31-6.73c.87-2.03,2.08-3.78,3.61-5.25,1.53-1.46,3.36-2.59,5.48-3.38,2.12-.79,4.43-1.19,6.93-1.19h20.18l-5.72,8.78h-14.46c-1.21,0-2.32.2-3.36.61-1.03.4-1.92.97-2.67,1.69-.75.72-1.33,1.59-1.76,2.6s-.64,2.12-.64,3.33.21,2.31.62,3.3c.41.99,1,1.84,1.76,2.55.76.71,1.66,1.25,2.69,1.64,1.03.39,2.15.58,3.36.58h20.18Zm-13.55,10.24l-3.53,11.3h-3.1v-11.3h6.63Z"/></g><g><path class="cls-1" d="m343.58,37.47c-.88-1.28-1.94-2.13-3.21-2.57,4.97-1.97,5.14-11.01.84-14.05-4.93-4.22-21.46-1.7-27.3-2.35l-6.02,8.78c1.53.91,29.29-2.29,27.96,2.17.04,1.79-1.23,2.24-2.49,2.27,0,0-25.47,0-25.47,0v7.21c1.86.01,9.71,0,11.38,0,0,0,13.96,0,13.96,0,1.62.02,2.7.44,2.75,2.27-.05,1.87-1.1,2.35-2.75,2.37,0,0-13.96,0-13.96,0-1.65.01-9.58,0-11.38,0v8.67h25.3c7.74,1.01,14.99-6.23,10.39-14.78Z"/><g><polygon class="cls-1" points="360.08 27.28 360.08 27.28 376.94 27.28 382.7 18.51 349.36 18.51 349.36 27.28 360.08 27.28"/><polygon class="cls-1" points="358.31 43.58 349.36 43.58 349.36 52.25 377.07 52.25 382.79 43.58 358.31 43.58"/><polygon class="cls-1" points="381.11 31.32 358.31 31.32 349.36 31.3 349.36 38.97 358.31 38.99 375.99 38.99 381.11 31.32"/></g><g><path class="cls-1" d="m428.32,33.1c.79-6.77,7.12-6.18,12.04-6.37,4.91.19,11.24-.4,12.03,6.37h8.91c-1.41-12.67-9.84-14.8-20.95-15.14-11.15.34-19.54,2.45-20.95,15.14h8.91Z"/><path class="cls-1" d="m452.38,37.66c-.83,6.74-7.11,6.2-12.03,6.37-4.92-.17-11.2.37-12.03-6.37h-8.91c1.42,12.72,9.74,14.79,20.94,15.14,11.16-.35,19.52-2.44,20.94-15.14h-8.91Z"/></g><g><path class="cls-1" d="m388.9,18.51l-5.76,8.78h32.7l5.77-8.78h-32.7Z"/><rect class="cls-1" x="396.64" y="31.85" width="8.91" height="20.4"/></g><g><polygon class="cls-1" points="465.78 29.78 465.78 52.25 473.86 52.25 473.86 38.37 465.78 29.78"/><path class="cls-1" d="m491.85,18.51v19.82l-17.64-18.56c-2.83-3.54-8.1-1.63-8.35,3.25,4.93,6.35,19.98,22.06,25.65,27.97,3.23,4.05,8.91.94,8.47-4.54,0,0,0-27.94,0-27.94h-8.13Z"/></g></g></g><g><path class="cls-2" d="m18.3,11.27c14.66-10.12,32.09-8.37,43.98,1,.52.41,1.17-.3.72-.78C53.55,1.46,38.79-2.78,24.82,1.91,6.29,8.14-4.1,28.22,1.53,46.95c1.53,5.08,4.05,9.57,7.29,13.33-3.54-5.65-5.66-12.47-5.65-20.18.01-10.04,6.86-23.12,15.12-28.82Z"/><path class="cls-1" d="m19.41,65.87c-11.12-12.62-11.08-31.82.06-44.43,8.36-9.46,20.74-13.05,32.14-10.66.48.1.68-.58.22-.75-12.37-4.63-26.92-1.79-36.37,8.61-11.97,13.19-9.22,36.72.48,46.31,3.65,3.61,7.77,6.36,12.25,8.05-3.21-1.81-6.19-4.18-8.79-7.13Z"/><path class="cls-2" d="m17.22,43.61c-.71-9.11,2.96-17.45,9.17-22.83.43-.38-.07-1.05-.56-.74-8.05,5.08-13.08,14.59-12.26,25.12,1.17,15.05,13.85,26.5,28.32,25.56,3.62-.23,7.01-1.22,10.03-2.8-2.02.68-4.16,1.11-6.39,1.25-14.47.94-27.15-10.51-28.32-25.56Z"/><path class="cls-1" d="m59.46,60.16c-11.21,7.39-26.23,3.84-33.56-7.94-3.73-5.99-4.74-12.96-3.37-19.33.18-.83-1.03-1.16-1.32-.36-2.6,7.19-1.96,15.58,2.42,22.63,7.33,11.78,22.35,15.34,33.56,7.94,2.8-1.85,5.1-4.21,6.86-6.89-1.33,1.48-2.87,2.81-4.59,3.95Z"/><path class="cls-1" d="m62.17,20.77c-4.94-4.23-21.51-1.7-27.35-2.35l-5.62,8.19h27.09c.72,0,1.3.58,1.3,1.3v2.85c0,.72-.58,1.3-1.3,1.3h-27.51v6.47h27.51c.72,0,1.3.58,1.3,1.3v2.85c0,.72-.58,1.3-1.3,1.3h-27.36l2.65,8.24h22.55c7.76,1.02,15.02-6.25,10.41-14.81-.88-1.28-1.95-2.14-3.21-2.58,4.99-1.98,5.15-11.03.84-14.08Z"/></g></svg>