<?xml version="1.0" encoding="utf-8"?>
<!-- Generator: Adobe Illustrator 16.0.0, SVG Export Plug-In . SVG Version: 6.00 Build 0)  -->
<!DOCTYPE svg PUBLIC "-//W3C//DTD SVG 1.1//EN" "http://www.w3.org/Graphics/SVG/1.1/DTD/svg11.dtd">
<svg version="1.1" id="katman_1" xmlns="http://www.w3.org/2000/svg" xmlns:xlink="http://www.w3.org/1999/xlink" x="0px" y="0px"
	 width="136.333px" height="80.5px" viewBox="0 0 136.333 80.5" enable-background="new 0 0 136.333 80.5" xml:space="preserve">
<g>
	<path fill="#D1D3D4" d="M4.228,74.822v1.683H3.87v-1.683l-1.969-3.206h0.391l1.768,2.877l1.768-2.877h0.369L4.228,74.822z"/>
	<path fill="#D1D3D4" d="M9.634,74.766H6.497c0.01,0.285,0.082,0.537,0.217,0.758c0.135,0.221,0.318,0.392,0.549,0.513
		c0.23,0.121,0.49,0.182,0.778,0.182c0.237,0,0.458-0.043,0.66-0.129c0.202-0.086,0.372-0.213,0.507-0.381l0.202,0.231
		c-0.158,0.191-0.357,0.337-0.597,0.439c-0.24,0.103-0.5,0.154-0.779,0.154c-0.363,0-0.688-0.079-0.971-0.237
		c-0.284-0.159-0.507-0.377-0.668-0.657c-0.16-0.279-0.24-0.598-0.24-0.957c0-0.354,0.076-0.671,0.227-0.954
		c0.151-0.282,0.359-0.502,0.625-0.661c0.266-0.158,0.564-0.237,0.895-0.237s0.627,0.078,0.891,0.234
		c0.264,0.156,0.471,0.374,0.621,0.653c0.152,0.279,0.228,0.596,0.228,0.95L9.634,74.766z M7.21,73.309
		c-0.205,0.114-0.369,0.275-0.492,0.482c-0.124,0.207-0.195,0.441-0.213,0.702h2.793C9.284,74.232,9.215,74,9.089,73.795
		c-0.126-0.205-0.291-0.366-0.496-0.482c-0.205-0.116-0.436-0.174-0.691-0.174S7.415,73.195,7.21,73.309z"/>
	<path fill="#D1D3D4" d="M13.587,73.229c0.266,0.265,0.398,0.647,0.398,1.145v2.13h-0.35v-2.103c0-0.41-0.104-0.721-0.311-0.936
		c-0.207-0.214-0.497-0.321-0.869-0.321c-0.429,0-0.766,0.128-1.014,0.384c-0.246,0.256-0.369,0.601-0.369,1.034v1.942h-0.35v-3.646
		h0.335v0.789c0.126-0.256,0.313-0.456,0.563-0.6c0.249-0.145,0.544-0.217,0.884-0.217C12.961,72.831,13.321,72.963,13.587,73.229z"
		/>
	<path fill="#D1D3D4" d="M15.403,71.989c-0.051-0.054-0.077-0.118-0.077-0.192c0-0.075,0.026-0.139,0.081-0.192
		c0.053-0.054,0.117-0.081,0.191-0.081s0.139,0.026,0.192,0.081c0.054,0.053,0.08,0.117,0.08,0.192c0,0.074-0.026,0.138-0.08,0.192
		c-0.054,0.053-0.118,0.08-0.192,0.08C15.52,72.069,15.454,72.042,15.403,71.989z M15.424,72.859h0.35v3.646h-0.35V72.859z"/>
	<path fill="#D1D3D4" d="M17.247,71.322h0.35v5.183h-0.35V71.322z"/>
	<path fill="#D1D3D4" d="M22.15,74.766h-3.136c0.01,0.285,0.081,0.537,0.216,0.758c0.136,0.221,0.318,0.392,0.549,0.513
		c0.23,0.121,0.489,0.182,0.778,0.182c0.238,0,0.458-0.043,0.66-0.129c0.203-0.086,0.371-0.213,0.506-0.381l0.203,0.231
		c-0.158,0.191-0.357,0.337-0.598,0.439c-0.238,0.103-0.499,0.154-0.778,0.154c-0.362,0-0.687-0.079-0.971-0.237
		c-0.284-0.159-0.507-0.377-0.667-0.657c-0.16-0.279-0.241-0.598-0.241-0.957c0-0.354,0.076-0.671,0.228-0.954
		c0.15-0.282,0.359-0.502,0.625-0.661c0.266-0.158,0.563-0.237,0.895-0.237c0.33,0,0.627,0.078,0.891,0.234
		c0.263,0.156,0.47,0.374,0.621,0.653c0.15,0.279,0.227,0.596,0.227,0.95L22.15,74.766z M19.728,73.309
		c-0.205,0.114-0.37,0.275-0.493,0.482c-0.124,0.207-0.194,0.441-0.213,0.702h2.794c-0.014-0.261-0.084-0.493-0.209-0.698
		c-0.127-0.205-0.291-0.366-0.496-0.482c-0.205-0.116-0.436-0.174-0.691-0.174C20.162,73.139,19.932,73.195,19.728,73.309z"/>
	<path fill="#D1D3D4" d="M26.104,73.229c0.266,0.265,0.398,0.647,0.398,1.145v2.13h-0.35v-2.103c0-0.41-0.104-0.721-0.311-0.936
		c-0.207-0.214-0.498-0.321-0.87-0.321c-0.429,0-0.767,0.128-1.013,0.384c-0.247,0.256-0.371,0.601-0.371,1.034v1.942h-0.348v-3.646
		h0.334v0.789c0.127-0.256,0.313-0.456,0.563-0.6c0.25-0.145,0.544-0.217,0.884-0.217C25.478,72.831,25.839,72.963,26.104,73.229z"
		/>
	<path fill="#D1D3D4" d="M31.028,74.766h-3.136c0.009,0.285,0.081,0.537,0.216,0.758c0.136,0.221,0.318,0.392,0.549,0.513
		c0.23,0.121,0.49,0.182,0.779,0.182c0.237,0,0.457-0.043,0.66-0.129c0.203-0.086,0.371-0.213,0.506-0.381l0.203,0.231
		c-0.158,0.191-0.357,0.337-0.598,0.439c-0.24,0.103-0.5,0.154-0.779,0.154c-0.363,0-0.687-0.079-0.971-0.237
		c-0.283-0.159-0.506-0.377-0.666-0.657c-0.162-0.279-0.241-0.598-0.241-0.957c0-0.354,0.075-0.671,0.227-0.954
		c0.151-0.282,0.36-0.502,0.625-0.661c0.265-0.158,0.563-0.237,0.895-0.237c0.33,0,0.627,0.078,0.89,0.234
		c0.264,0.156,0.471,0.374,0.623,0.653c0.15,0.279,0.227,0.596,0.227,0.95L31.028,74.766z M28.604,73.309
		c-0.204,0.114-0.369,0.275-0.492,0.482s-0.194,0.441-0.213,0.702h2.795C30.68,74.232,30.61,74,30.483,73.795
		c-0.125-0.205-0.291-0.366-0.496-0.482c-0.204-0.116-0.435-0.174-0.69-0.174C29.04,73.139,28.81,73.195,28.604,73.309z"/>
	<path fill="#D1D3D4" d="M34.87,73.065c0.275,0.156,0.49,0.375,0.646,0.656c0.156,0.282,0.234,0.602,0.234,0.961
		c0,0.358-0.078,0.677-0.234,0.957c-0.156,0.28-0.371,0.499-0.646,0.657c-0.274,0.158-0.582,0.237-0.922,0.237
		c-0.326,0-0.621-0.077-0.883-0.234c-0.264-0.156-0.467-0.374-0.611-0.652v0.858h-0.336v-5.183h0.35v2.368
		c0.145-0.27,0.347-0.48,0.607-0.632c0.261-0.152,0.552-0.227,0.873-0.227C34.288,72.831,34.596,72.909,34.87,73.065z
		 M34.683,76.023c0.223-0.13,0.398-0.312,0.527-0.544c0.127-0.233,0.191-0.499,0.191-0.796s-0.064-0.563-0.191-0.797
		c-0.129-0.233-0.305-0.414-0.527-0.544c-0.225-0.13-0.476-0.196-0.755-0.196s-0.53,0.065-0.751,0.196
		c-0.222,0.13-0.396,0.312-0.523,0.544c-0.129,0.233-0.192,0.499-0.192,0.797s0.063,0.563,0.192,0.796
		c0.127,0.233,0.302,0.415,0.523,0.544c0.221,0.131,0.472,0.196,0.751,0.196S34.458,76.154,34.683,76.023z"/>
	<path fill="#D1D3D4" d="M36.813,71.989c-0.052-0.054-0.077-0.118-0.077-0.192c0-0.075,0.027-0.139,0.081-0.192
		c0.053-0.054,0.117-0.081,0.192-0.081c0.074,0,0.138,0.026,0.191,0.081c0.053,0.053,0.08,0.117,0.08,0.192
		c0,0.074-0.027,0.138-0.08,0.192c-0.054,0.053-0.117,0.08-0.191,0.08C36.929,72.069,36.864,72.042,36.813,71.989z M36.833,72.859
		h0.35v3.646h-0.35V72.859z"/>
	<path fill="#D1D3D4" d="M38.656,71.322h0.35v5.183h-0.35V71.322z"/>
	<path fill="#D1D3D4" d="M40.458,71.989c-0.051-0.054-0.076-0.118-0.076-0.192c0-0.075,0.026-0.139,0.08-0.192
		c0.053-0.054,0.118-0.081,0.192-0.081s0.138,0.026,0.192,0.081c0.053,0.053,0.08,0.117,0.08,0.192c0,0.074-0.027,0.138-0.08,0.192
		c-0.055,0.053-0.118,0.08-0.192,0.08C40.575,72.069,40.509,72.042,40.458,71.989z M40.479,72.859h0.35v3.646h-0.35V72.859z"/>
	<path fill="#D1D3D4" d="M43.162,73.044c0.237-0.142,0.526-0.213,0.866-0.213v0.342l-0.084-0.006c-0.405,0-0.723,0.126-0.95,0.38
		c-0.229,0.253-0.343,0.606-0.343,1.058v1.9h-0.349v-3.646h0.335v0.796C42.749,73.39,42.925,73.186,43.162,73.044z"/>
	<path fill="#D1D3D4" d="M50.335,76.184v0.321h-3.373v-4.889h3.27v0.321h-2.914v1.928h2.606v0.314h-2.606v2.005H50.335z"/>
	<path fill="#D1D3D4" d="M54.387,73.229c0.266,0.265,0.398,0.647,0.398,1.145v2.13h-0.349v-2.103c0-0.41-0.104-0.721-0.311-0.936
		c-0.209-0.214-0.498-0.321-0.871-0.321c-0.428,0-0.766,0.128-1.013,0.384c-0.247,0.256-0.37,0.601-0.37,1.034v1.942h-0.35v-3.646
		h0.336v0.789c0.125-0.256,0.313-0.456,0.562-0.6c0.249-0.145,0.544-0.217,0.884-0.217C53.761,72.831,54.12,72.963,54.387,73.229z"
		/>
	<path fill="#D1D3D4" d="M59.312,74.766h-3.137c0.01,0.285,0.082,0.537,0.217,0.758c0.135,0.221,0.317,0.392,0.549,0.513
		c0.23,0.121,0.489,0.182,0.778,0.182c0.237,0,0.458-0.043,0.659-0.129c0.203-0.086,0.373-0.213,0.508-0.381l0.202,0.231
		c-0.158,0.191-0.358,0.337-0.597,0.439c-0.24,0.103-0.5,0.154-0.779,0.154c-0.363,0-0.688-0.079-0.972-0.237
		c-0.284-0.159-0.507-0.377-0.667-0.657c-0.16-0.279-0.24-0.598-0.24-0.957c0-0.354,0.075-0.671,0.227-0.954
		c0.15-0.282,0.359-0.502,0.625-0.661c0.266-0.158,0.563-0.237,0.895-0.237c0.33,0,0.627,0.078,0.891,0.234
		c0.263,0.156,0.471,0.374,0.621,0.653c0.151,0.279,0.227,0.596,0.227,0.95L59.312,74.766z M56.888,73.309
		c-0.205,0.114-0.369,0.275-0.492,0.482c-0.124,0.207-0.195,0.441-0.213,0.702h2.793c-0.014-0.261-0.084-0.493-0.209-0.698
		c-0.126-0.205-0.291-0.366-0.496-0.482c-0.205-0.116-0.436-0.174-0.691-0.174S57.092,73.195,56.888,73.309z"/>
	<path fill="#D1D3D4" d="M61.261,73.044c0.236-0.142,0.525-0.213,0.865-0.213v0.342l-0.084-0.006c-0.404,0-0.722,0.126-0.949,0.38
		c-0.229,0.253-0.342,0.606-0.342,1.058v1.9h-0.35v-3.646h0.334v0.796C60.849,73.39,61.022,73.186,61.261,73.044z"/>
	<path fill="#D1D3D4" d="M62.123,77.825c-0.134-0.042-0.241-0.102-0.325-0.182l0.14-0.258c0.149,0.135,0.347,0.203,0.594,0.203
		c0.214,0,0.377-0.063,0.489-0.189c0.111-0.126,0.168-0.307,0.168-0.544v-3.996h0.348v4.009c0,0.312-0.086,0.56-0.258,0.744
		c-0.172,0.184-0.414,0.276-0.726,0.276C62.399,77.888,62.255,77.867,62.123,77.825z M63.16,71.891
		c-0.056-0.053-0.084-0.12-0.084-0.199s0.028-0.147,0.084-0.203c0.056-0.056,0.124-0.084,0.202-0.084
		c0.079,0,0.147,0.027,0.203,0.08c0.055,0.054,0.084,0.12,0.084,0.199c0,0.08-0.029,0.146-0.084,0.203
		c-0.056,0.055-0.124,0.083-0.203,0.083C63.284,71.972,63.216,71.945,63.16,71.891z"/>
	<path fill="#D1D3D4" d="M64.99,71.989c-0.052-0.054-0.077-0.118-0.077-0.192c0-0.075,0.027-0.139,0.08-0.192
		c0.054-0.054,0.117-0.081,0.192-0.081s0.138,0.026,0.192,0.081c0.053,0.053,0.08,0.117,0.08,0.192c0,0.074-0.027,0.138-0.08,0.192
		c-0.055,0.053-0.117,0.08-0.192,0.08C65.106,72.069,65.042,72.042,64.99,71.989z M65.011,72.859h0.35v3.646h-0.35V72.859z"/>
	<path fill="#D1D3D4" d="M69.003,76.355c-0.324-0.124-0.576-0.283-0.758-0.479l0.16-0.266c0.174,0.182,0.404,0.33,0.695,0.444
		s0.598,0.171,0.919,0.171c0.466,0,0.817-0.089,1.054-0.266c0.238-0.177,0.356-0.408,0.356-0.692c0-0.218-0.062-0.393-0.188-0.524
		c-0.126-0.13-0.282-0.23-0.468-0.3c-0.188-0.07-0.438-0.143-0.755-0.217c-0.358-0.088-0.647-0.175-0.862-0.258
		c-0.217-0.084-0.401-0.213-0.553-0.388c-0.15-0.174-0.227-0.409-0.227-0.702c0-0.238,0.063-0.455,0.189-0.654
		c0.125-0.198,0.316-0.354,0.576-0.471c0.258-0.117,0.58-0.175,0.967-0.175c0.27,0,0.535,0.04,0.795,0.118
		c0.262,0.08,0.488,0.187,0.679,0.322l-0.134,0.286c-0.195-0.135-0.41-0.237-0.645-0.307c-0.235-0.07-0.467-0.105-0.695-0.105
		c-0.452,0-0.794,0.091-1.027,0.272c-0.232,0.182-0.35,0.417-0.35,0.706c0,0.219,0.063,0.394,0.189,0.524
		c0.126,0.13,0.281,0.23,0.468,0.3c0.186,0.07,0.44,0.144,0.761,0.224c0.359,0.088,0.646,0.174,0.859,0.258
		c0.215,0.084,0.397,0.211,0.549,0.381s0.227,0.399,0.227,0.688c0,0.237-0.063,0.454-0.191,0.649
		c-0.129,0.196-0.326,0.352-0.591,0.468c-0.265,0.117-0.591,0.175-0.978,0.175C69.668,76.541,69.327,76.478,69.003,76.355z"/>
	<path fill="#D1D3D4" d="M72.862,71.989c-0.051-0.054-0.076-0.118-0.076-0.192c0-0.075,0.027-0.139,0.08-0.192
		c0.054-0.054,0.117-0.081,0.192-0.081s0.138,0.026,0.192,0.081c0.053,0.053,0.08,0.117,0.08,0.192c0,0.074-0.027,0.138-0.08,0.192
		c-0.055,0.053-0.117,0.08-0.192,0.08C72.979,72.069,72.914,72.042,72.862,71.989z M72.884,72.859h0.35v3.646h-0.35V72.859z"/>
	<path fill="#D1D3D4" d="M74.79,76.4c-0.266-0.088-0.473-0.2-0.621-0.335l0.16-0.279c0.149,0.125,0.342,0.23,0.576,0.314
		c0.236,0.084,0.48,0.126,0.737,0.126c0.368,0,0.64-0.061,0.813-0.182c0.175-0.121,0.262-0.289,0.262-0.503
		c0-0.153-0.047-0.275-0.143-0.363s-0.213-0.154-0.353-0.195c-0.14-0.042-0.333-0.086-0.58-0.133
		c-0.289-0.051-0.522-0.107-0.698-0.167c-0.178-0.061-0.328-0.158-0.454-0.294c-0.126-0.135-0.188-0.321-0.188-0.558
		c0-0.289,0.119-0.528,0.359-0.716s0.582-0.283,1.023-0.283c0.232,0,0.463,0.032,0.691,0.097c0.228,0.066,0.414,0.152,0.56,0.259
		l-0.162,0.279c-0.148-0.107-0.319-0.188-0.509-0.245c-0.191-0.055-0.387-0.083-0.588-0.083c-0.338,0-0.596,0.062-0.768,0.188
		s-0.259,0.292-0.259,0.496c0,0.164,0.05,0.291,0.147,0.381s0.217,0.159,0.359,0.203s0.342,0.092,0.598,0.143
		c0.283,0.051,0.514,0.106,0.688,0.164c0.175,0.059,0.322,0.152,0.443,0.283s0.182,0.31,0.182,0.538
		c0,0.303-0.126,0.545-0.377,0.727c-0.252,0.181-0.605,0.272-1.062,0.272C75.335,76.533,75.056,76.489,74.79,76.4z"/>
	<path fill="#D1D3D4" d="M79.854,76.274c-0.088,0.083-0.199,0.148-0.331,0.192c-0.134,0.044-0.272,0.066-0.417,0.066
		c-0.316,0-0.561-0.087-0.732-0.262c-0.174-0.175-0.26-0.417-0.26-0.73v-2.382h-0.67v-0.3h0.67v-0.796h0.35v0.796h1.16v0.3h-1.16
		v2.347c0,0.237,0.057,0.418,0.172,0.541c0.114,0.124,0.283,0.186,0.507,0.186c0.228,0,0.417-0.068,0.565-0.203L79.854,76.274z"/>
	<path fill="#D1D3D4" d="M83.774,74.766h-3.138c0.01,0.285,0.081,0.537,0.216,0.758c0.136,0.221,0.318,0.392,0.549,0.513
		c0.231,0.121,0.49,0.182,0.779,0.182c0.237,0,0.457-0.043,0.66-0.129c0.203-0.086,0.371-0.213,0.507-0.381l0.202,0.231
		c-0.158,0.191-0.357,0.337-0.597,0.439c-0.241,0.103-0.499,0.154-0.78,0.154c-0.363,0-0.686-0.079-0.971-0.237
		c-0.283-0.159-0.506-0.377-0.666-0.657c-0.162-0.279-0.241-0.598-0.241-0.957c0-0.354,0.075-0.671,0.226-0.954
		c0.152-0.282,0.361-0.502,0.626-0.661c0.266-0.158,0.563-0.237,0.895-0.237s0.628,0.078,0.892,0.234
		c0.262,0.156,0.469,0.374,0.621,0.653c0.15,0.279,0.227,0.596,0.227,0.95L83.774,74.766z M81.349,73.309
		c-0.204,0.114-0.369,0.275-0.491,0.482c-0.124,0.207-0.195,0.441-0.214,0.702h2.795c-0.014-0.261-0.084-0.493-0.211-0.698
		c-0.125-0.205-0.29-0.366-0.495-0.482c-0.204-0.116-0.436-0.174-0.691-0.174S81.554,73.195,81.349,73.309z"/>
	<path fill="#D1D3D4" d="M90.468,73.229c0.258,0.265,0.389,0.647,0.389,1.145v2.13h-0.35v-2.103c0-0.41-0.101-0.721-0.301-0.936
		c-0.199-0.214-0.479-0.321-0.838-0.321c-0.41,0-0.734,0.128-0.975,0.384c-0.239,0.256-0.359,0.601-0.359,1.034v1.942h-0.35v-2.103
		c0-0.41-0.1-0.721-0.3-0.936c-0.2-0.214-0.479-0.321-0.839-0.321c-0.41,0-0.734,0.128-0.975,0.384
		c-0.239,0.256-0.359,0.601-0.359,1.034v1.942h-0.349v-3.646h0.335v0.782c0.121-0.256,0.302-0.455,0.541-0.597
		c0.24-0.142,0.525-0.213,0.855-0.213s0.611,0.075,0.843,0.223c0.229,0.149,0.395,0.368,0.492,0.657
		c0.12-0.27,0.31-0.484,0.568-0.643c0.26-0.158,0.561-0.237,0.905-0.237C89.855,72.831,90.21,72.963,90.468,73.229z"/>
	<path fill="#D1D3D4" d="M92.296,71.322h0.35v5.183h-0.35V71.322z"/>
	<path fill="#D1D3D4" d="M97.198,74.766h-3.136c0.009,0.285,0.081,0.537,0.216,0.758c0.137,0.221,0.318,0.392,0.549,0.513
		c0.23,0.121,0.49,0.182,0.779,0.182c0.237,0,0.457-0.043,0.66-0.129c0.203-0.086,0.37-0.213,0.506-0.381l0.202,0.231
		c-0.158,0.191-0.357,0.337-0.597,0.439c-0.24,0.103-0.5,0.154-0.779,0.154c-0.363,0-0.688-0.079-0.971-0.237
		c-0.284-0.159-0.507-0.377-0.667-0.657c-0.161-0.279-0.241-0.598-0.241-0.957c0-0.354,0.075-0.671,0.228-0.954
		c0.151-0.282,0.358-0.502,0.624-0.661c0.266-0.158,0.564-0.237,0.895-0.237s0.628,0.078,0.891,0.234
		c0.264,0.156,0.471,0.374,0.621,0.653c0.152,0.279,0.229,0.596,0.229,0.95L97.198,74.766z M94.774,73.309
		c-0.205,0.114-0.369,0.275-0.492,0.482s-0.194,0.441-0.213,0.702h2.795c-0.016-0.261-0.085-0.493-0.211-0.698
		c-0.125-0.205-0.291-0.366-0.496-0.482c-0.205-0.116-0.436-0.174-0.691-0.174S94.979,73.195,94.774,73.309z"/>
	<path fill="#D1D3D4" d="M99.147,73.044c0.237-0.142,0.525-0.213,0.865-0.213v0.342l-0.084-0.006c-0.404,0-0.721,0.126-0.949,0.38
		c-0.229,0.253-0.342,0.606-0.342,1.058v1.9h-0.35v-3.646h0.336v0.796C98.735,73.39,98.91,73.186,99.147,73.044z"/>
	<path fill="#D1D3D4" d="M100.956,71.989c-0.051-0.054-0.076-0.118-0.076-0.192c0-0.075,0.027-0.139,0.08-0.192
		c0.055-0.054,0.118-0.081,0.193-0.081c0.074,0,0.139,0.026,0.191,0.081c0.054,0.053,0.08,0.117,0.08,0.192
		c0,0.074-0.026,0.138-0.08,0.192c-0.053,0.053-0.117,0.08-0.191,0.08C101.073,72.069,101.008,72.042,100.956,71.989z
		 M100.978,72.859h0.35v3.646h-0.35V72.859z"/>
</g>
<g>
	<path fill="#FFFFFF" d="M25.21,9.832v24.5h-5.704L8.69,21.277v13.055H1.901v-24.5h5.704l10.815,13.055V9.832H25.21z"/>
	<path fill="#FFFFFF" d="M48.065,28.976v5.355h-19.67v-24.5H47.61v5.355H35.256v4.13h10.885v5.18H35.256v4.479H48.065z"/>
	<path fill="#FFFFFF" d="M78.341,9.832l-10.5,24.5h-6.824l-10.466-24.5h7.491l6.649,15.96l6.79-15.96H78.341z"/>
	<path fill="#FFFFFF" d="M73.683,34.332l10.5-24.5h6.824l10.466,24.5h-7.49l-6.649-15.96l-6.791,15.96H73.683z"/>
</g>
<g>
	<path fill="#FFFFFF" d="M6.451,64.077c-1.867-0.49-3.384-1.143-4.55-1.96l2.274-5.11c1.097,0.724,2.368,1.308,3.815,1.75
		c1.446,0.444,2.869,0.665,4.271,0.665c2.659,0,3.989-0.665,3.989-1.994c0-0.7-0.38-1.22-1.138-1.558s-1.977-0.694-3.657-1.067
		c-1.844-0.396-3.384-0.823-4.62-1.278c-1.237-0.455-2.298-1.184-3.185-2.188c-0.887-1.003-1.33-2.356-1.33-4.06
		c0-1.493,0.408-2.841,1.225-4.043c0.816-1.201,2.035-2.152,3.658-2.853c1.621-0.699,3.609-1.05,5.967-1.05
		c1.61,0,3.196,0.182,4.76,0.543s2.94,0.893,4.13,1.592l-2.135,5.146c-2.333-1.26-4.597-1.89-6.789-1.89
		c-1.378,0-2.381,0.204-3.011,0.612s-0.945,0.939-0.945,1.593s0.373,1.143,1.12,1.47c0.746,0.327,1.948,0.665,3.605,1.015
		c1.866,0.397,3.412,0.822,4.638,1.277c1.225,0.455,2.286,1.179,3.185,2.17c0.898,0.992,1.348,2.34,1.348,4.043
		c0,1.47-0.408,2.8-1.226,3.99c-0.816,1.189-2.042,2.141-3.675,2.853c-1.633,0.711-3.617,1.067-5.949,1.067
		C10.243,64.812,8.317,64.567,6.451,64.077z"/>
	<path fill="#FFFFFF" d="M31.182,63.167c-2.064-1.097-3.688-2.612-4.865-4.55c-1.178-1.937-1.768-4.118-1.768-6.545
		s0.59-4.608,1.768-6.545s2.801-3.453,4.865-4.55s4.393-1.646,6.982-1.646s4.918,0.549,6.982,1.646s3.686,2.613,4.865,4.55
		c1.178,1.937,1.768,4.118,1.768,6.545s-0.59,4.608-1.768,6.545c-1.18,1.938-2.801,3.453-4.865,4.55
		c-2.064,1.098-4.393,1.646-6.982,1.646S33.246,64.264,31.182,63.167z M41.523,58.197c1.004-0.583,1.797-1.405,2.381-2.468
		c0.582-1.062,0.875-2.28,0.875-3.657s-0.293-2.596-0.875-3.657c-0.584-1.062-1.377-1.884-2.381-2.468
		c-1.004-0.583-2.123-0.875-3.359-0.875s-2.357,0.292-3.359,0.875c-1.004,0.584-1.797,1.406-2.381,2.468s-0.875,2.28-0.875,3.657
		s0.291,2.596,0.875,3.657c0.584,1.063,1.377,1.885,2.381,2.468c1.002,0.584,2.123,0.875,3.359,0.875S40.52,58.781,41.523,58.197z"
		/>
	<path fill="#FFFFFF" d="M54.646,39.822h6.93v19.005h11.691v5.495H54.646V39.822z"/>
	<path fill="#FFFFFF" d="M113.781,57.812h-3.779v6.51h-6.93v-24.5h11.199c2.217,0,4.141,0.367,5.775,1.103
		c1.633,0.735,2.893,1.785,3.779,3.15c0.887,1.364,1.33,2.969,1.33,4.813c0,1.773-0.414,3.319-1.242,4.637
		c-0.828,1.319-2.012,2.352-3.553,3.098l5.285,7.7h-7.42L113.781,57.812z M117.072,46.227c-0.725-0.63-1.797-0.945-3.221-0.945
		h-3.85v7.175h3.85c1.424,0,2.496-0.309,3.221-0.928c0.723-0.617,1.084-1.498,1.084-2.642S117.795,46.857,117.072,46.227z"/>
	<path fill="#FFFFFF" d="M74.339,64.322l10.5-24.5h6.825l10.465,24.5h-7.49l-6.65-15.96l-6.789,15.96H74.339z"/>
</g>
<path fill="#FFD41C" d="M107.681,22.374L97.109,8.851l13.878,10.124C110.987,18.974,108.873,19.814,107.681,22.374z M113.606,17.857
	l2.667-16.625l2.45,16.602C118.724,17.834,116.606,17.117,113.606,17.857z M105.266,31.475c-17.225-5.337-26.867,1.345-26.867,1.345
	s11.488-9.468,26.013-4.09c14.204,5.259,26.82-2.294,27.369-2.63C131.312,26.509,122.048,36.675,105.266,31.475z M124.175,25.415
	c4.458-1.266,7.348-2.999,7.605-3.155c-0.469,0.409-9.732,10.575-26.515,5.375c-17.225-5.336-26.867,1.346-26.867,1.346
	s11.488-9.468,26.013-4.09c1.278,0.472,2.541,0.842,3.784,1.123c0.187-3.657,3.706-6.572,8.02-6.572
	C120.294,19.44,123.66,22.043,124.175,25.415z M121.272,18.836l13.787-9.717l-10.105,13.347
	C124.954,22.465,123.933,20.134,121.272,18.836z"/>
</svg>
